<svg version="1.1" preserveAspectRatio="none" xmlns="http://www.w3.org/2000/svg" width="500" height="500" viewBox="0 0 500 500"><rect width="100%" height="100%" fill="#FFFFFF" fill-opacity="1"/><svg viewBox="94.0249 349.8 410.6458 115" width="333" height="93.25555016025976" x="83.5px" y="203.3722px" xmlns="http://www.w3.org/2000/svg" xmlns:xlink="http://www.w3.org/1999/xlink" preserveAspectRatio="none"><defs></defs><style>.companyName {fill:#1e1e1e;fill-opacity:1;}.icon1 {fill:#1E1E1E;fill-opacity:1;}.icon3-str {stroke:#848383;stroke-opacity:1;}.shapeStroke-str {stroke:#949393;stroke-opacity:1;}</style><g opacity="1" transform="rotate(0 94.0249 463.8)">
<svg width="410.6458" height="1" x="94.0249" y="463.8" version="1.1" preserveAspectRatio="none" viewBox="0 0 410.6458 1">
  <defs><rect x="0" y="0" width="410.6458" height="1" rx="0%" ry="0%" id="id-Fn9MWtLe1676254275690"></rect></defs><use class="icon1 shapeStroke-str" style="stroke-width:0;" xlink:href="#id-Fn9MWtLe1676254275690"></use>
</svg>
</g><g opacity="1" transform="rotate(0 94.0249 349.8)">
<svg width="410.6458" height="4" x="94.0249" y="349.8" version="1.1" preserveAspectRatio="none" viewBox="0 0 410.6458 4">
  <defs><rect x="0" y="0" width="410.6458" height="4" rx="0%" ry="0%" id="id-7UcwTXs11676254275690"></rect></defs><use class="icon1 shapeStroke-str" style="stroke-width:0;" xlink:href="#id-7UcwTXs11676254275690"></use>
</svg>
</g><g opacity="1" transform="rotate(0 114.0249 373.8)">
<svg width="370.6458" height="70" x="114.0249" y="373.8" version="1.1" preserveAspectRatio="none" viewBox="-0.2 -26.16 142.04 26.8133">
  <g transform="matrix(1 0 0 1 0 0)" class="companyName"><path id="id-D6z1nYkh6" d="M28.20-0.48Q28.36-0.48 28.36-0.24Q28.36 0 28.20 0L28.20 0Q27.44 0 25.76-0.08L25.76-0.08Q24.16-0.16 23.40-0.16L23.40-0.16Q22.48-0.16 21.12-0.08L21.12-0.08Q19.76 0 19.08 0L19.08 0Q18.92 0 18.92-0.24Q18.92-0.48 19.08-0.48L19.08-0.48Q20.44-0.48 21.04-0.74Q21.64-1 21.64-1.68L21.64-1.68Q21.64-2.36 21.04-3.56L21.04-3.56L16.56-12.84L9.20-12.84L5.92-5.28Q5.36-3.96 5.36-3.08L5.36-3.08Q5.36-0.48 9.24-0.48L9.24-0.48Q9.44-0.48 9.44-0.24Q9.44 0 9.24 0L9.24 0Q8.52 0 7.16-0.08L7.16-0.08Q5.64-0.16 4.52-0.16L4.52-0.16Q3.48-0.16 2.04-0.08L2.04-0.08Q0.76 0-0.04 0L-0.04 0Q-0.20 0-0.20-0.24Q-0.20-0.48-0.04-0.48L-0.04-0.48Q1.08-0.48 1.86-0.92Q2.64-1.36 3.36-2.44Q4.08-3.52 5-5.64L5-5.64L13.52-25.28Q13.56-25.40 13.80-25.42Q14.04-25.44 14.08-25.28L14.08-25.28L23.72-5.48Q25.08-2.56 26.04-1.52Q27-0.48 28.20-0.48L28.20-0.48ZM12.68-20.96L9.56-13.76L16.12-13.76L12.68-20.96Z M49.72-20.36Q49.72-22.40 48.82-23.46Q47.92-24.52 46.16-24.52L46.16-24.52Q46.04-24.52 46.04-24.76Q46.04-25 46.16-25L46.16-25L47.96-24.96Q49.40-24.88 50.24-24.88L50.24-24.88Q50.96-24.88 52.32-24.96L52.32-24.96L54.04-25Q54.12-25 54.12-24.76Q54.12-24.52 54.04-24.52L54.04-24.52Q50.80-24.52 50.80-20.36L50.80-20.36L50.80-9.08Q50.80-4.60 48.18-2.04Q45.56 0.52 41.20 0.52L41.20 0.52Q38.24 0.52 36-0.62Q33.76-1.76 32.52-3.90Q31.28-6.04 31.28-8.92L31.28-8.92L31.28-21.76Q31.28-22.96 31.04-23.52Q30.80-24.08 30.14-24.30Q29.48-24.52 28.04-24.52L28.04-24.52Q27.92-24.52 27.92-24.76Q27.92-25 28.04-25L28.04-25L30.04-24.96Q31.80-24.88 32.84-24.88L32.84-24.88Q33.96-24.88 35.72-24.96L35.72-24.96L37.64-25Q37.76-25 37.76-24.76Q37.76-24.52 37.64-24.52L37.64-24.52Q36.24-24.52 35.58-24.28Q34.92-24.04 34.68-23.46Q34.44-22.88 34.44-21.68L34.44-21.68L34.44-10.32Q34.44-5.60 36.50-3.18Q38.56-0.76 42.28-0.76L42.28-0.76Q45.76-0.76 47.74-2.94Q49.72-5.12 49.72-9.04L49.72-9.04L49.72-20.36Z M60.64-20.52Q60.64-19 61.40-17.86Q62.16-16.72 63.24-15.90Q64.32-15.08 66.24-13.92L66.24-13.92Q68.24-12.68 69.42-11.78Q70.60-10.88 71.44-9.56Q72.28-8.24 72.28-6.44L72.28-6.44Q72.28-4.48 71.26-2.90Q70.24-1.32 68.34-0.42Q66.44 0.48 63.92 0.48L63.92 0.48Q62.32 0.48 60.76 0.10Q59.20-0.28 58.04-1L58.04-1Q57.84-1.12 57.76-1.28Q57.68-1.44 57.68-1.76L57.68-1.76L57.28-7.48Q57.24-7.64 57.46-7.68Q57.68-7.72 57.72-7.56L57.72-7.56Q58.68-4.52 60.40-2.40Q62.12-0.28 64.88-0.28L64.88-0.28Q66.76-0.28 68.02-1.30Q69.28-2.32 69.28-4.64L69.28-4.64Q69.28-6.40 68.48-7.72Q67.68-9.04 66.54-9.94Q65.40-10.84 63.48-12L63.48-12Q61.60-13.20 60.50-14.06Q59.40-14.92 58.64-16.18Q57.88-17.44 57.88-19.12L57.88-19.12Q57.88-21.16 58.98-22.60Q60.08-24.04 61.86-24.74Q63.64-25.44 65.60-25.44L65.60-25.44Q68.28-25.44 70.44-24.52L70.44-24.52Q71.04-24.28 71.04-23.80L71.04-23.80L71.24-18.80Q71.24-18.64 71.04-18.60Q70.84-18.56 70.80-18.72L70.80-18.72Q70.36-20.88 68.92-22.82Q67.48-24.76 64.84-24.76L64.84-24.76Q62.84-24.76 61.74-23.56Q60.64-22.36 60.64-20.52L60.64-20.52Z M82.40-24.20Q79.92-24.20 78.52-22.82Q77.12-21.44 76.44-18.40L76.44-18.40Q76.40-18.32 76.18-18.32Q75.96-18.32 75.96-18.40L75.96-18.40Q76.12-19.56 76.32-22.08Q76.52-24.60 76.52-25.88L76.52-25.88Q76.52-26.08 76.76-26.08Q77-26.08 77-25.88L77-25.88Q77-25 79.20-25L79.20-25Q82.60-24.88 87.24-24.88L87.24-24.88Q89.60-24.88 92.24-24.96L92.24-24.96L94.96-25Q96.44-25 97.12-25.20Q97.80-25.40 98-26L98-26Q98.04-26.16 98.26-26.16Q98.48-26.16 98.48-26L98.48-26Q98.36-24.88 98.22-22.40Q98.08-19.92 98.08-18.40L98.08-18.40Q98.08-18.32 97.86-18.32Q97.64-18.32 97.64-18.40L97.64-18.40Q97.36-21.48 96.04-22.84Q94.72-24.20 92.12-24.20L92.12-24.20Q90.64-24.20 90-24.02Q89.36-23.84 89.12-23.34Q88.88-22.84 88.88-21.68L88.88-21.68L88.88-3.24Q88.88-2 89.14-1.44Q89.40-0.88 90.16-0.68Q90.92-0.48 92.60-0.48L92.60-0.48Q92.68-0.48 92.68-0.24Q92.68 0 92.60 0L92.60 0Q91.20 0 90.40-0.04L90.40-0.04L87.24-0.08L84.16-0.04Q83.36 0 81.92 0L81.92 0Q81.80 0 81.80-0.24Q81.80-0.48 81.92-0.48L81.92-0.48Q83.56-0.48 84.32-0.68Q85.08-0.88 85.36-1.46Q85.64-2.04 85.64-3.24L85.64-3.24L85.64-21.76Q85.64-22.88 85.40-23.38Q85.16-23.88 84.52-24.04Q83.88-24.20 82.40-24.20L82.40-24.20Z M108.24-3.24Q108.24-2.04 108.48-1.46Q108.72-0.88 109.38-0.68Q110.04-0.48 111.48-0.48L111.48-0.48Q111.56-0.48 111.56-0.24Q111.56 0 111.48 0L111.48 0Q110.20 0 109.48-0.04L109.48-0.04L106.60-0.08L103.80-0.04Q103.04 0 101.72 0L101.72 0Q101.64 0 101.64-0.24Q101.64-0.48 101.72-0.48L101.72-0.48Q103.16-0.48 103.84-0.68Q104.52-0.88 104.76-1.46Q105-2.04 105-3.24L105-3.24L105-21.76Q105-22.96 104.76-23.52Q104.52-24.08 103.84-24.30Q103.16-24.52 101.72-24.52L101.72-24.52Q101.64-24.52 101.64-24.76Q101.64-25 101.72-25L101.72-25L103.80-24.96Q105.56-24.88 106.60-24.88L106.60-24.88Q107.76-24.88 109.52-24.96L109.52-24.96L111.48-25Q111.56-25 111.56-24.76Q111.56-24.52 111.48-24.52L111.48-24.52Q110.08-24.52 109.40-24.28Q108.72-24.04 108.48-23.46Q108.24-22.88 108.24-21.68L108.24-21.68L108.24-3.24Z M141.72-25Q141.84-25 141.84-24.76Q141.84-24.52 141.72-24.52L141.72-24.52Q138.44-24.52 138.44-20.36L138.44-20.36L138.44 0.52Q138.44 0.60 138.26 0.64Q138.08 0.68 138 0.60L138 0.60L119.24-21.64L119.24-4.60Q119.24-2.48 120.02-1.48Q120.80-0.48 122.40-0.48L122.40-0.48Q122.52-0.48 122.52-0.24Q122.52 0 122.40 0L122.40 0Q121.36 0 120.80-0.04L120.80-0.04L118.76-0.08L116.60-0.04Q116.00 0 114.84 0L114.84 0Q114.76 0 114.76-0.24Q114.76-0.48 114.84-0.48L114.84-0.48Q116.56-0.48 117.38-1.48Q118.20-2.48 118.20-4.60L118.20-4.60L118.20-22.76Q116.44-24.52 114.72-24.52L114.72-24.52Q114.60-24.52 114.60-24.76Q114.60-25 114.72-25L114.72-25L116.28-24.96Q116.76-24.92 117.64-24.92L117.64-24.92L119.72-24.96Q120.08-25 120.64-25L120.64-25Q120.96-25 121.10-24.86Q121.24-24.72 121.56-24.24L121.56-24.24Q121.92-23.68 122.56-22.92L122.56-22.92L137.44-4.96L137.44-20.36Q137.44-22.48 136.68-23.50Q135.92-24.52 134.32-24.52L134.32-24.52Q134.24-24.52 134.24-24.76Q134.24-25 134.32-25L134.32-25L135.92-24.96Q137.12-24.88 137.96-24.88L137.96-24.88Q138.68-24.88 140.04-24.96L140.04-24.96L141.72-25Z"/></g>
</svg>
</g></svg></svg>